<?xml version="1.0" encoding="utf-8" standalone="no"?>
<!DOCTYPE svg PUBLIC "-//W3C//DTD SVG 1.1//EN"
  "http://www.w3.org/Graphics/SVG/1.1/DTD/svg11.dtd">
<svg height="432pt" version="1.1" viewBox="0 0 576 432" width="576pt" xmlns="http://www.w3.org/2000/svg" xmlns:xlink="http://www.w3.org/1999/xlink">
 <metadata>
  <rdf:RDF xmlns:cc="http://creativecommons.org/ns#" xmlns:dc="http://purl.org/dc/elements/1.1/" xmlns:rdf="http://www.w3.org/1999/02/22-rdf-syntax-ns#">
   <cc:Work>
    <dc:type rdf:resource="http://purl.org/dc/dcmitype/StillImage"/>
    <dc:date>2021-11-10T11:59:29.040504</dc:date>
    <dc:format>image/svg+xml</dc:format>
    <dc:creator>
     <cc:Agent>
      <dc:title>Matplotlib v3.4.3, https://matplotlib.org/</dc:title>
     </cc:Agent>
    </dc:creator>
   </cc:Work>
  </rdf:RDF>
 </metadata>
 <defs>
  <style type="text/css">*{stroke-linecap:butt;stroke-linejoin:round;}</style>
 </defs>
 <g id="figure_1">
  <g id="patch_1">
   <path d="M 0 432
L 576 432
L 576 0
L 0 0
z
" style="fill:none;"/>
  </g>
  <g id="axes_1">
   <g id="patch_2">
    <path d="M 82.217205 363.345136
L 556.56 363.345136
L 556.56 19.44
L 82.217205 19.44
z
" style="fill:#ffffff;"/>
   </g>
   <g id="matplotlib.axis_1">
    <g id="xtick_1">
     <g id="line2d_1">
      <defs>
       <path d="M 0 0
L 0 3.5
" id="mc150ac4e11" style="stroke:#000000;stroke-width:0.8;"/>
      </defs>
      <g>
       <use style="stroke:#000000;stroke-width:0.8;" x="103.778241" xlink:href="#mc150ac4e11" y="363.345136"/>
      </g>
     </g>
     <g id="text_1">
      <!-- $\mathdefault{−1.0}$ -->
      <g transform="translate(86.141338 382.798436)scale(0.18 -0.18)">
       <defs>
        <path d="M 4218 1472
C 4326 1472 4442 1472 4442 1600
C 4442 1728 4326 1728 4218 1728
L 755 1728
C 646 1728 531 1728 531 1600
C 531 1472 646 1472 755 1472
L 4218 1472
z
" id="CMSY10-0" transform="scale(0.015625)"/>
        <path d="M 1702 4058
C 1702 4192 1696 4192 1606 4192
C 1357 3916 979 3827 621 3827
C 602 3827 570 3827 563 3808
C 557 3795 557 3782 557 3648
C 755 3648 1088 3686 1344 3839
L 1344 461
C 1344 236 1331 160 781 160
L 589 160
L 589 0
C 896 0 1216 0 1523 0
C 1830 0 2150 0 2458 0
L 2458 160
L 2266 160
C 1715 160 1702 230 1702 458
L 1702 4058
z
" id="CMR17-31" transform="scale(0.015625)"/>
        <path d="M 1178 307
C 1178 492 1024 619 870 619
C 685 619 557 466 557 313
C 557 128 710 0 864 0
C 1050 0 1178 153 1178 307
z
" id="CMMI12-3a" transform="scale(0.015625)"/>
        <path d="M 2688 2025
C 2688 2416 2682 3080 2413 3591
C 2176 4039 1798 4198 1466 4198
C 1158 4198 768 4058 525 3597
C 269 3118 243 2524 243 2025
C 243 1661 250 1106 448 619
C 723 -39 1216 -128 1466 -128
C 1760 -128 2208 -7 2470 600
C 2662 1042 2688 1559 2688 2025
z
M 1466 -26
C 1056 -26 813 325 723 812
C 653 1188 653 1738 653 2096
C 653 2588 653 2997 736 3387
C 858 3929 1216 4096 1466 4096
C 1728 4096 2067 3923 2189 3400
C 2272 3036 2278 2607 2278 2096
C 2278 1680 2278 1169 2202 792
C 2067 95 1690 -26 1466 -26
z
" id="CMR17-30" transform="scale(0.015625)"/>
       </defs>
       <use transform="scale(0.996264)" xlink:href="#CMSY10-0"/>
       <use transform="translate(77.487468 0)scale(0.996264)" xlink:href="#CMR17-31"/>
       <use transform="translate(123.177945 0)scale(0.996264)" xlink:href="#CMMI12-3a"/>
       <use transform="translate(150.275122 0)scale(0.996264)" xlink:href="#CMR17-30"/>
      </g>
     </g>
    </g>
    <g id="xtick_2">
     <g id="line2d_2">
      <g>
       <use style="stroke:#000000;stroke-width:0.8;" x="211.583422" xlink:href="#mc150ac4e11" y="363.345136"/>
      </g>
     </g>
     <g id="text_2">
      <!-- $\mathdefault{−0.5}$ -->
      <g transform="translate(193.946519 382.798436)scale(0.18 -0.18)">
       <defs>
        <path d="M 730 3692
C 794 3666 1056 3584 1325 3584
C 1920 3584 2246 3911 2432 4100
C 2432 4157 2432 4192 2394 4192
C 2387 4192 2374 4192 2323 4163
C 2099 4058 1837 3973 1517 3973
C 1325 3973 1037 3999 723 4139
C 653 4171 640 4171 634 4171
C 602 4171 595 4164 595 4037
L 595 2203
C 595 2089 595 2057 659 2057
C 691 2057 704 2070 736 2114
C 941 2401 1222 2522 1542 2522
C 1766 2522 2246 2382 2246 1289
C 2246 1085 2246 715 2054 421
C 1894 159 1645 25 1370 25
C 947 25 518 320 403 814
C 429 807 480 795 506 795
C 589 795 749 840 749 1038
C 749 1210 627 1280 506 1280
C 358 1280 262 1190 262 1011
C 262 454 704 -128 1382 -128
C 2042 -128 2669 440 2669 1264
C 2669 2030 2170 2624 1549 2624
C 1222 2624 947 2503 730 2274
L 730 3692
z
" id="CMR17-35" transform="scale(0.015625)"/>
       </defs>
       <use transform="scale(0.996264)" xlink:href="#CMSY10-0"/>
       <use transform="translate(77.487468 0)scale(0.996264)" xlink:href="#CMR17-30"/>
       <use transform="translate(123.177945 0)scale(0.996264)" xlink:href="#CMMI12-3a"/>
       <use transform="translate(150.275122 0)scale(0.996264)" xlink:href="#CMR17-35"/>
      </g>
     </g>
    </g>
    <g id="xtick_3">
     <g id="line2d_3">
      <g>
       <use style="stroke:#000000;stroke-width:0.8;" x="319.388602" xlink:href="#mc150ac4e11" y="363.345136"/>
      </g>
     </g>
     <g id="text_3">
      <!-- $\mathdefault{0.0}$ -->
      <g transform="translate(308.725571 382.798436)scale(0.18 -0.18)">
       <use transform="scale(0.996264)" xlink:href="#CMR17-30"/>
       <use transform="translate(45.690477 0)scale(0.996264)" xlink:href="#CMMI12-3a"/>
       <use transform="translate(72.787654 0)scale(0.996264)" xlink:href="#CMR17-30"/>
      </g>
     </g>
    </g>
    <g id="xtick_4">
     <g id="line2d_4">
      <g>
       <use style="stroke:#000000;stroke-width:0.8;" x="427.193783" xlink:href="#mc150ac4e11" y="363.345136"/>
      </g>
     </g>
     <g id="text_4">
      <!-- $\mathdefault{0.5}$ -->
      <g transform="translate(416.530751 382.798436)scale(0.18 -0.18)">
       <use transform="scale(0.996264)" xlink:href="#CMR17-30"/>
       <use transform="translate(45.690477 0)scale(0.996264)" xlink:href="#CMMI12-3a"/>
       <use transform="translate(72.787654 0)scale(0.996264)" xlink:href="#CMR17-35"/>
      </g>
     </g>
    </g>
    <g id="xtick_5">
     <g id="line2d_5">
      <g>
       <use style="stroke:#000000;stroke-width:0.8;" x="534.998964" xlink:href="#mc150ac4e11" y="363.345136"/>
      </g>
     </g>
     <g id="text_5">
      <!-- $\mathdefault{1.0}$ -->
      <g transform="translate(524.335932 382.798436)scale(0.18 -0.18)">
       <use transform="scale(0.996264)" xlink:href="#CMR17-31"/>
       <use transform="translate(45.690477 0)scale(0.996264)" xlink:href="#CMMI12-3a"/>
       <use transform="translate(72.787654 0)scale(0.996264)" xlink:href="#CMR17-30"/>
      </g>
     </g>
    </g>
    <g id="text_6">
     <!-- $\frac{2\varphi}{\pi}$ -->
     <g transform="translate(312.289925 406.376052)scale(0.18 -0.18)">
      <defs>
       <path d="M 2669 989
L 2554 989
C 2490 536 2438 459 2413 420
C 2381 369 1920 369 1830 369
L 602 369
C 832 619 1280 1072 1824 1597
C 2214 1967 2669 2402 2669 3035
C 2669 3790 2067 4224 1395 4224
C 691 4224 262 3604 262 3030
C 262 2780 448 2748 525 2748
C 589 2748 781 2787 781 3010
C 781 3207 614 3264 525 3264
C 486 3264 448 3258 422 3245
C 544 3790 915 4058 1306 4058
C 1862 4058 2227 3617 2227 3035
C 2227 2479 1901 2000 1536 1584
L 262 146
L 262 0
L 2515 0
L 2669 989
z
" id="CMR17-32" transform="scale(0.015625)"/>
       <path d="M 1926 280
C 1818 280 1722 280 1722 312
C 1722 325 1830 926 1869 1067
C 2074 1884 2560 2472 3117 2472
C 3533 2472 3725 2159 3725 1808
C 3725 1080 2906 280 1926 280
z
M 1651 -51
C 1690 -57 1754 -64 1869 -64
C 2918 -64 3885 945 3885 1954
C 3885 2344 3712 2816 3174 2816
C 2253 2816 1862 1519 1504 318
C 768 458 461 848 461 1276
C 461 1449 595 2133 966 2592
C 1037 2676 1037 2689 1037 2702
C 1037 2753 986 2753 973 2753
C 800 2753 314 1820 314 1213
C 314 497 877 107 1395 -7
L 1062 -1088
C 1030 -1184 1030 -1196 1030 -1222
C 1030 -1376 1184 -1376 1197 -1376
C 1261 -1376 1376 -1351 1427 -1223
C 1446 -1166 1626 -178 1651 -51
z
" id="CMMI12-27" transform="scale(0.015625)"/>
       <path d="M 1658 2408
L 2381 2408
C 2208 1692 2099 1226 2099 716
C 2099 626 2099 -64 2362 -64
C 2496 -64 2611 57 2611 166
C 2611 197 2611 210 2566 306
C 2394 747 2394 1296 2394 1341
C 2394 1379 2394 1832 2528 2408
L 3245 2408
C 3328 2408 3539 2408 3539 2612
C 3539 2752 3418 2752 3302 2752
L 1197 2752
C 1050 2752 832 2752 538 2440
C 371 2254 166 1916 166 1878
C 166 1840 198 1827 237 1827
C 282 1827 288 1846 320 1884
C 653 2408 986 2408 1146 2408
L 1510 2408
C 1370 1929 1210 1373 685 256
C 634 154 634 140 634 102
C 634 -32 749 -64 806 -64
C 992 -64 1043 102 1120 370
C 1222 696 1222 709 1286 964
L 1658 2408
z
" id="CMMI12-19" transform="scale(0.015625)"/>
      </defs>
      <use transform="translate(0 44.444174)scale(0.697382)" xlink:href="#CMR17-32"/>
      <use transform="translate(31.983182 44.444174)scale(0.697382)" xlink:href="#CMMI12-27"/>
      <use transform="translate(17.73896 -34.355253)scale(0.697382)" xlink:href="#CMMI12-19"/>
      <path d="M 0 22.914133
L 76.715126 22.914133
L 76.715126 26.899083
L 0 26.899083
L 0 22.914133
z
"/>
     </g>
    </g>
   </g>
   <g id="matplotlib.axis_2">
    <g id="ytick_1">
     <g id="line2d_6">
      <defs>
       <path d="M 0 0
L -3.5 0
" id="ma8ae32fea3" style="stroke:#000000;stroke-width:0.8;"/>
      </defs>
      <g>
       <use style="stroke:#000000;stroke-width:0.8;" x="82.217205" xlink:href="#ma8ae32fea3" y="347.713085"/>
      </g>
     </g>
     <g id="text_7">
      <!-- $\mathdefault{0.00}$ -->
      <g transform="translate(45.666855 353.939735)scale(0.18 -0.18)">
       <use transform="scale(0.996264)" xlink:href="#CMR17-30"/>
       <use transform="translate(45.690477 0)scale(0.996264)" xlink:href="#CMMI12-3a"/>
       <use transform="translate(72.787654 0)scale(0.996264)" xlink:href="#CMR17-30"/>
       <use transform="translate(118.478131 0)scale(0.996264)" xlink:href="#CMR17-30"/>
      </g>
     </g>
    </g>
    <g id="ytick_2">
     <g id="line2d_7">
      <g>
       <use style="stroke:#000000;stroke-width:0.8;" x="82.217205" xlink:href="#ma8ae32fea3" y="297.954719"/>
      </g>
     </g>
     <g id="text_8">
      <!-- $\mathdefault{0.25}$ -->
      <g transform="translate(45.666855 304.181369)scale(0.18 -0.18)">
       <use transform="scale(0.996264)" xlink:href="#CMR17-30"/>
       <use transform="translate(45.690477 0)scale(0.996264)" xlink:href="#CMMI12-3a"/>
       <use transform="translate(72.787654 0)scale(0.996264)" xlink:href="#CMR17-32"/>
       <use transform="translate(118.478131 0)scale(0.996264)" xlink:href="#CMR17-35"/>
      </g>
     </g>
    </g>
    <g id="ytick_3">
     <g id="line2d_8">
      <g>
       <use style="stroke:#000000;stroke-width:0.8;" x="82.217205" xlink:href="#ma8ae32fea3" y="248.196353"/>
      </g>
     </g>
     <g id="text_9">
      <!-- $\mathdefault{0.50}$ -->
      <g transform="translate(45.666855 254.423003)scale(0.18 -0.18)">
       <use transform="scale(0.996264)" xlink:href="#CMR17-30"/>
       <use transform="translate(45.690477 0)scale(0.996264)" xlink:href="#CMMI12-3a"/>
       <use transform="translate(72.787654 0)scale(0.996264)" xlink:href="#CMR17-35"/>
       <use transform="translate(118.478131 0)scale(0.996264)" xlink:href="#CMR17-30"/>
      </g>
     </g>
    </g>
    <g id="ytick_4">
     <g id="line2d_9">
      <g>
       <use style="stroke:#000000;stroke-width:0.8;" x="82.217205" xlink:href="#ma8ae32fea3" y="198.437987"/>
      </g>
     </g>
     <g id="text_10">
      <!-- $\mathdefault{0.75}$ -->
      <g transform="translate(45.666855 204.664637)scale(0.18 -0.18)">
       <defs>
        <path d="M 2886 3941
L 2886 4081
L 1382 4081
C 634 4081 621 4165 595 4288
L 480 4288
L 294 3094
L 410 3094
C 429 3215 474 3540 550 3661
C 589 3712 1062 3712 1171 3712
L 2579 3712
L 1869 2661
C 1395 1954 1069 999 1069 165
C 1069 89 1069 -128 1299 -128
C 1530 -128 1530 89 1530 171
L 1530 465
C 1530 1508 1709 2196 2003 2636
L 2886 3941
z
" id="CMR17-37" transform="scale(0.015625)"/>
       </defs>
       <use transform="scale(0.996264)" xlink:href="#CMR17-30"/>
       <use transform="translate(45.690477 0)scale(0.996264)" xlink:href="#CMMI12-3a"/>
       <use transform="translate(72.787654 0)scale(0.996264)" xlink:href="#CMR17-37"/>
       <use transform="translate(118.478131 0)scale(0.996264)" xlink:href="#CMR17-35"/>
      </g>
     </g>
    </g>
    <g id="ytick_5">
     <g id="line2d_10">
      <g>
       <use style="stroke:#000000;stroke-width:0.8;" x="82.217205" xlink:href="#ma8ae32fea3" y="148.679621"/>
      </g>
     </g>
     <g id="text_11">
      <!-- $\mathdefault{1.00}$ -->
      <g transform="translate(45.666855 154.906271)scale(0.18 -0.18)">
       <use transform="scale(0.996264)" xlink:href="#CMR17-31"/>
       <use transform="translate(45.690477 0)scale(0.996264)" xlink:href="#CMMI12-3a"/>
       <use transform="translate(72.787654 0)scale(0.996264)" xlink:href="#CMR17-30"/>
       <use transform="translate(118.478131 0)scale(0.996264)" xlink:href="#CMR17-30"/>
      </g>
     </g>
    </g>
    <g id="ytick_6">
     <g id="line2d_11">
      <g>
       <use style="stroke:#000000;stroke-width:0.8;" x="82.217205" xlink:href="#ma8ae32fea3" y="98.921256"/>
      </g>
     </g>
     <g id="text_12">
      <!-- $\mathdefault{1.25}$ -->
      <g transform="translate(45.666855 105.147906)scale(0.18 -0.18)">
       <use transform="scale(0.996264)" xlink:href="#CMR17-31"/>
       <use transform="translate(45.690477 0)scale(0.996264)" xlink:href="#CMMI12-3a"/>
       <use transform="translate(72.787654 0)scale(0.996264)" xlink:href="#CMR17-32"/>
       <use transform="translate(118.478131 0)scale(0.996264)" xlink:href="#CMR17-35"/>
      </g>
     </g>
    </g>
    <g id="ytick_7">
     <g id="line2d_12">
      <g>
       <use style="stroke:#000000;stroke-width:0.8;" x="82.217205" xlink:href="#ma8ae32fea3" y="49.16289"/>
      </g>
     </g>
     <g id="text_13">
      <!-- $\mathdefault{1.50}$ -->
      <g transform="translate(45.666855 55.38954)scale(0.18 -0.18)">
       <use transform="scale(0.996264)" xlink:href="#CMR17-31"/>
       <use transform="translate(45.690477 0)scale(0.996264)" xlink:href="#CMMI12-3a"/>
       <use transform="translate(72.787654 0)scale(0.996264)" xlink:href="#CMR17-35"/>
       <use transform="translate(118.478131 0)scale(0.996264)" xlink:href="#CMR17-30"/>
      </g>
     </g>
    </g>
    <g id="text_14">
     <!-- $\bar P$ -->
     <g transform="translate(19.44 187.904504)scale(0.18 -0.18)">
      <defs>
       <path d="M 2554 3520
L 2554 3666
L 378 3666
L 378 3520
L 2554 3520
z
" id="CMR17-16" transform="scale(0.015625)"/>
       <path d="M 1894 2023
L 2970 2023
C 3853 2023 4736 2673 4736 3401
C 4736 3898 4314 4352 3507 4352
L 1530 4352
C 1408 4352 1350 4352 1350 4231
C 1350 4167 1408 4167 1504 4167
C 1894 4167 1894 4116 1894 4046
C 1894 4034 1894 3995 1869 3899
L 1005 472
C 947 249 934 185 486 185
C 365 185 301 185 301 70
C 301 0 358 0 397 0
C 518 0 646 0 768 0
L 1517 0
C 1638 0 1773 0 1894 0
C 1946 0 2016 0 2016 121
C 2016 185 1958 185 1862 185
C 1478 185 1472 230 1472 293
C 1472 325 1478 369 1485 401
L 1894 2023
z
M 2355 3930
C 2413 4167 2438 4167 2688 4167
L 3322 4167
C 3802 4167 4198 4013 4198 3535
C 4198 3369 4115 2827 3821 2534
C 3712 2419 3405 2176 2822 2176
L 1920 2176
L 2355 3930
z
" id="CMMI12-50" transform="scale(0.015625)"/>
      </defs>
      <use transform="translate(23.496833 25.189733)scale(0.996264)" xlink:href="#CMR17-16"/>
      <use transform="scale(0.996264)" xlink:href="#CMMI12-50"/>
     </g>
    </g>
   </g>
   <g id="line2d_13">
    <path clip-path="url(#p278b2c7590)" d="M 103.778241 35.072052
L 112.578664 47.215506
L 121.379087 58.21701
L 130.17951 68.200173
L 138.979933 77.270628
L 147.780356 85.519066
L 156.580778 93.023675
L 165.381201 99.852108
L 174.181624 106.063084
L 182.982047 111.707699
L 191.78247 116.8305
L 200.582893 121.470385
L 209.383316 125.661333
L 218.183739 129.433034
L 226.984162 132.811391
L 235.784585 135.818966
L 244.585008 138.47533
L 253.385431 140.797375
L 262.185853 142.799563
L 270.986276 144.49414
L 279.786699 145.891307
L 288.587122 146.999363
L 297.387545 147.824819
L 306.187968 148.372483
L 314.988391 148.645528
L 323.788814 148.645528
L 332.589237 148.372483
L 341.38966 147.824819
L 350.190083 146.999363
L 358.990506 145.891307
L 367.790928 144.49414
L 376.591351 142.799563
L 385.391774 140.797375
L 394.192197 138.47533
L 402.99262 135.818966
L 411.793043 132.811391
L 420.593466 129.433034
L 429.393889 125.661333
L 438.194312 121.470385
L 446.994735 116.8305
L 455.795158 111.707699
L 464.595581 106.063084
L 473.396003 99.852108
L 482.196426 93.023675
L 490.996849 85.519066
L 499.797272 77.270628
L 508.597695 68.200173
L 517.398118 58.21701
L 526.198541 47.215506
L 534.998964 35.072052
" style="fill:none;stroke:#c7003f;stroke-linecap:square;stroke-opacity:0.992157;stroke-width:2;"/>
   </g>
   <g id="line2d_14">
    <path clip-path="url(#p278b2c7590)" d="M 319.388602 347.713085
L 319.388602 148.679621
" style="fill:none;stroke:#000000;stroke-linecap:square;stroke-width:2;"/>
   </g>
   <g id="line2d_15">
    <path clip-path="url(#p278b2c7590)" d="M 319.388602 148.679621
L 319.388602 35.072052
" style="fill:none;stroke:#000000;stroke-dasharray:7.4,3.2;stroke-dashoffset:0;stroke-width:2;"/>
   </g>
   <g id="patch_3">
    <path d="M 82.217205 363.345136
L 82.217205 19.44
" style="fill:none;stroke:#000000;stroke-linecap:square;stroke-linejoin:miter;stroke-width:0.8;"/>
   </g>
   <g id="patch_4">
    <path d="M 556.56 363.345136
L 556.56 19.44
" style="fill:none;stroke:#000000;stroke-linecap:square;stroke-linejoin:miter;stroke-width:0.8;"/>
   </g>
   <g id="patch_5">
    <path d="M 82.217205 363.345136
L 556.56 363.345136
" style="fill:none;stroke:#000000;stroke-linecap:square;stroke-linejoin:miter;stroke-width:0.8;"/>
   </g>
   <g id="patch_6">
    <path d="M 82.217205 19.44
L 556.56 19.44
" style="fill:none;stroke:#000000;stroke-linecap:square;stroke-linejoin:miter;stroke-width:0.8;"/>
   </g>
  </g>
 </g>
 <defs>
  <clipPath id="p278b2c7590">
   <rect height="343.905136" width="474.342795" x="82.217205" y="19.44"/>
  </clipPath>
 </defs>
</svg>
